# AST/ASF file generated using VICON BodyLanguage
# -----------------------------------------------
:version 1.10
:name VICON
:units
  mass 1.0
  length 0.45
  angle deg
:documentation
   .ast/.asf automatically generated from VICON data using
   VICON BodyBuilder and BodyLanguage model FoxedUp or BRILLIANT.MOD
:root
   order TX TY TZ RX RY RZ
   axis XYZ
   position 0 0 0  
   orientation 0 0 0 
:bonedata
  begin
     id 1 
     name lhipjoint
     direction 0.611804 -0.747784 0.257906 
     length 2.29243 
     axis 0 0 0  XYZ
  end
  begin
     id 2 
     name lfemur
     direction 0.34202 -0.939693 0  
     length 7.31159  
     axis 0 0 20  XYZ
    dof rx ry rz
    limits (-160.0 20.0)
           (-70.0 70.0)
           (-60.0 70.0)
  end
  begin
     id 3 
     name ltibia
     direction 0.34202 -0.939693 0   
     length 7.33391   
     axis 0 0 20   XYZ
    dof rx
    limits (-10.0 170.0)
  end
  begin
     id 4 
     name lfoot
     direction 0.122263 -0.335914 0.933924   
     length 1.76083   
     axis -90 7.62852e-016 20   XYZ
    dof rx rz
    limits (-45.0 90.0)
           (-70.0 20.0)
  end
  begin
     id 5 
     name ltoes
     direction 1.53533e-011 -4.2177e-011 1   
     length 0.879206   
     axis -90 7.62852e-016 20   XYZ
    dof rx
    limits (-90.0 20.0)
  end
  begin
     id 6 
     name rhipjoint
     direction -0.646469 -0.721248 0.248754   
     length 2.37677  
     axis 0 0 0  XYZ 
  end
  begin
     id 7 
     name rfemur
     direction -0.34202 -0.939693 0   
     length 7.18623   
     axis 0 0 -20   XYZ
    dof rx ry rz
    limits (-160.0 20.0)
           (-70.0 70.0)
           (-70.0 60.0)
  end
  begin
     id 8 
     name rtibia
     direction -0.34202 -0.939693 0   
     length 7.36567   
     axis 0 0 -20   XYZ
    dof rx
    limits (-10.0 170.0)
 end
 begin
     id 9 
     name rfoot
     direction -0.126681 -0.348054 0.928876   
     length 1.71902  
     axis -90 -7.62852e-016 -20   XYZ
    dof rx rz
    limits (-45.0 90.0)
           (-20.0 70.0)
  end
  begin
     id 10 
     name rtoes
     direction -1.53551e-011 -4.21898e-011 1   
     length 0.857792   
     axis -90 -7.62852e-016 -20   XYZ
    dof rx
    limits (-90.0 20.0)
  end
  begin
     id 11 
     name lowerback
     direction 0.0106509 0.999778 0.0181844   
     length 2.07668   
     axis 0 0 0   XYZ
    dof rx ry rz
    limits (-20.0 45.0)
           (-30.0 30.0)
           (-30.0 30.0)
  end
  begin
     id 12 
     name upperback
     direction -0.00456018 0.999989 -0.000590935   
     length 2.08011   
     axis 0 0 0   XYZ
    dof rx ry rz
    limits (-20.0 45.0)
           (-30.0 30.0)
           (-30.0 30.0)
  end
  begin
     id 13 
     name thorax
     direction -0.00910382 0.999916 -0.00923765   
     length 2.07397   
     axis 0 0 0   XYZ
    dof rx ry rz
    limits (-20.0 45.0)
           (-30.0 30.0)
           (-30.0 30.0)
  end
  begin
     id 14 
     name lowerneck
     direction 0.00171967 0.99778 0.0665733   
     length 1.67556   
     axis 0 0 0   XYZ
    dof rx ry rz
    limits (-20.0 45.0)
           (-30.0 30.0)
           (-30.0 30.0)
  end
  begin
     id 15 
     name upperneck
     direction -0.0143166 0.991302 -0.130828   
     length 1.68462   
     axis 0 0 0   XYZ
    dof rx ry rz
    limits (-20.0 45.0)
           (-30.0 30.0)
           (-30.0 30.0)
  end
  begin
     id 16
     name head
     direction -0.00606378 0.998665 -0.0512995  
     length 1.69269  
     axis 0 0 0   XYZ
    dof rx ry rz
    limits (-20.0 45.0)
           (-30.0 30.0)
           (-30.0 30.0)
  end
  begin
     id 17 
     name lclavicle
     direction 0.9638 0.179341 0.197297  
     length 4.12888  
     axis 0 0 0   XYZ
    dof ry rz
    limits (-20.0 10.0)
           (0.0 20.0)
  end
  begin
     id 18 
     name lhumerus
     direction 1 -4.48972e-011 -2.47351e-027   
     length 5.01834   
     axis -180 -30 -90   XYZ
    dof rx ry rz
    limits (-60.0 90.0)
           (-90.0 90.0)
           (-90.0 90.0)
  end
  begin
     id 19
     name lradius
     direction 1 -4.48965e-011 1.51591e-026   
     length 3.4869   
     axis -180 -30 -90   XYZ
    dof rx
    limits (-10.0 170.0)
  end
  begin
     id 20
     name lwrist
     direction 1 -4.48957e-011 2.70032e-026   
     length 1.74345   
     axis -1.81515e-014 90 90   XYZ
    dof ry
    limits (-180.0 0.0)
 end
  begin
     id 21 
     name lhand
     direction 1 -4.48951e-011 5.40064e-026   
     length 0.76799   
     axis -3.44607e-014 90 90   XYZ
    dof rx rz
    limits (-90.0 90.0)
           (-45.0 45.0)
  end
  begin
     id 22 
     name lfingers
     direction 1 -4.48971e-011 1.08013e-025   
     length 0.619174   
     axis -6.89214e-014 90 90   XYZ
    dof rx
    limits (0.0 90.0)
  end
  begin
     id 23
     name lthumb
     direction 0.707107 -6.34931e-011 0.707107   
     length 0.889013   
     axis -90 45 2.85299e-015   XYZ
    dof rx rz
    limits (-45.0 45.0)
           (-45.0 45.0)
  end
  begin
     id 24 
     name rclavicle
     direction -0.961409 0.252588 0.109054   
     length 4.04305  
     axis 0 0 0   XYZ 
    dof ry rz
    limits (-10.0 20.0)
           (-20.0 0.0)
  end
  begin
     id 25 
     name rhumerus
     direction -1 -4.4897e-011 1.33872e-017  
     length 4.70164   
     axis -180 30 90   XYZ
    dof rx ry rz
    limits (-90.0 60.0)
           (-90.0 90.0)
           (-90.0 90.0)
  end
  begin
     id 26 
     name rradius
     direction -1 -4.48954e-011 1.83844e-026   
     length 3.49911   
     axis -180 30 90   XYZ
    dof rx
    limits (-10.0 170.0)
  end
  begin
     id 27 
     name rwrist
     direction -1 -4.49008e-011 2.70032e-026   
     length 1.74955   
     axis -1.81515e-014 -90 -90   XYZ
    dof ry
    limits (-180.0 0.0)
  end
  begin
     id 28
     name rhand
     direction -1 -4.48916e-011 5.40064e-026   
     length 0.739335   
     axis -3.44607e-014 -90 -90   XYZ
    dof rx rz
    limits (-90.0 90.0)
           (-45.0 45.0)
  end
  begin
     id 29
     name rfingers
     direction -1 -4.48987e-011 1.08013e-025   
     length 0.596071   
     axis -6.89214e-014 -90 -90   XYZ
    dof rx
    limits (0.0 90.0)
  end
  begin
     id 30
     name rthumb
     direction -0.707107 -6.34935e-011 0.707107   
     length 0.855843   
     axis -90 -45 -2.85299e-015   XYZ
    dof rx rz
    limits (-45.0 45.0)
           (-45.0 45.0)
  end
:hierarchy
  begin
    root lhipjoint rhipjoint lowerback
    lhipjoint lfemur
    lfemur ltibia
    ltibia lfoot
    lfoot ltoes
    rhipjoint rfemur
    rfemur rtibia
    rtibia rfoot
    rfoot rtoes
    lowerback upperback
    upperback thorax
    thorax lowerneck lclavicle rclavicle
    lowerneck upperneck
    upperneck head
    lclavicle lhumerus
    lhumerus lradius
    lradius lwrist
    lwrist lhand lthumb
    lhand lfingers
    rclavicle rhumerus
    rhumerus rradius
    rradius rwrist
    rwrist rhand rthumb
    rhand rfingers
  end

#!OML:ASF I:\salsa\salsa 7_09\Patient 1\Session 1\dancermale.ASF
:FULLY-SPECIFIED
:DEGREES
1230
root 9.66531 16.8562 9.83272 1275.85 1.02965 529.151
lowerback -8.81946 7.79294 -12.7601
upperback 1.42956 11.7079 -3.7167
thorax 4.6973 5.31754 4.33862
lowerneck -9.71241 18.0938 -7.57046
upperneck 26.6107 20.476 21.6045
head 6.32813 10.9908 9.42729
rclavicle -7.7526e-015 -1.63003e-014
rhumerus -59.8929 19.796 -113.004
rradius 110.381
rwrist 9.81783
rhand -51.0768 -0.842806
rfingers 7.12502
rthumb -23.6222 -389.412
lclavicle -7.7526e-015 -1.63003e-014
lhumerus -14.8076 12.2799 89.7123
lradius 56.591
lwrist 23.5173
lhand 4.54295 61.0391
lfingers 7.12502
lthumb 29.9339 -631.362
rfemur -10.3685 0.772283 17.5339
rtibia 32.2227
rfoot -20.3643 -25.4646
rtoes -32.3507
lfemur -38.4609 -1.51784 -28.5221
ltibia 35.9666
lfoot -22.896 7.16429
ltoes 11.478
1231
root 9.78453 16.8297 9.83925 1276.02 -0.332131 529.725
lowerback -9.38143 8.29709 -12.5166
upperback 1.71127 12.5082 -3.026
thorax 5.08934 5.70558 5.09085
lowerneck -10.274 17.1005 -7.90589
upperneck 27.1172 19.5735 20.0324
head 6.89791 10.3879 9.16153
rclavicle -3.53837e-014 5.56597e-015
rhumerus -58.7906 21.2627 -112.637
rradius 109.601
rwrist 10.3011
rhand -51.8662 -3.18029
rfingers 7.12502
rthumb -24.3792 -391.649
lclavicle -3.53837e-014 5.56597e-015
lhumerus -15.9616 12.5513 89.2238
lradius 58.4572
lwrist 25.6462
lhand 1.61864 61.3411
lfingers 7.12502
lthumb 27.1398 -630.59
rfemur -10.3186 0.351254 19.1063
rtibia 32.0525
rfoot -20.6911 -25.7716
rtoes -32.1269
lfemur -39.4663 1.2306 -30.8692
ltibia 38.751
lfoot -23.543 8.19736
ltoes 8.99706
1232
root 9.89843 16.7971 9.82768 1276.06 -1.4011 530.167
lowerback -9.95681 8.81211 -12.385
upperback 2.00569 13.3149 -2.40517
thorax 5.47978 6.08221 5.84078
lowerneck -10.7653 16.0805 -8.17083
upperneck 27.5356 18.734 18.1065
head 7.46689 9.76153 8.73836
rclavicle 9.85972e-014 -9.54166e-015
rhumerus -57.2742 23.0313 -112.214
rradius 108.424
rwrist 10.3538
rhand -52.1677 -5.7932
rfingers 7.12502
rthumb -24.6683 -394.223
lclavicle 9.85972e-014 -9.54166e-015
lhumerus -17.2343 13.0433 88.5243
lradius 60.3521
lwrist 27.8597
lhand -0.735309 60.7798
lfingers 7.12502
lthumb 24.8859 -630.82
rfemur -10.2419 -0.276498 20.278
rtibia 32.1284
rfoot -20.9184 -25.4987
rtoes -32.0256
lfemur -40.1332 3.74385 -33.3327
ltibia 41.1515
lfoot -24.1146 9.01221
ltoes 6.32912
1233
root 10.0057 16.7598 9.79737 1276.03 -2.10668 530.394
lowerback -10.6286 9.34034 -12.1938
upperback 2.34619 14.1409 -2.12822
thorax 6.05829 6.44088 6.24952
lowerneck -11.5558 15.149 -8.14422
upperneck 28.041 17.9893 16.1589
head 8.1327 9.18659 8.28782
rclavicle -3.27995e-014 -5.64548e-014
rhumerus -54.9227 25.104 -111.853
rradius 106.703
rwrist 10.7145
rhand -52.6205 -9.18307
rfingers 7.12502
rthumb -25.1021 -397.553
lclavicle -3.27995e-014 -5.64548e-014
lhumerus -18.5567 13.5475 87.3286
lradius 62.392
lwrist 30.3055
lhand -3.40253 59.9144
lfingers 7.12502
lthumb 22.3276 -631.356
rfemur -10.1959 -1.08761 20.9254
rtibia 32.4827
rfoot -20.9763 -24.6798
rtoes -32.235
lfemur -40.479 6.3836 -36.1006
ltibia 42.9772
lfoot -24.1749 10.2004
ltoes 1.33476
1234
root 10.1102 16.7302 9.75223 1275.9 -2.53919 530.75
lowerback -11.144 9.86474 -12.0133
upperback 2.54513 14.9133 -1.80476
thorax 6.38471 6.79688 6.6705
lowerneck -11.8347 14.5892 -8.06387
upperneck 27.9914 17.7483 14.3237
head 8.4366 8.87239 7.73726
rclavicle 1.21855e-013 -4.29375e-014
rhumerus -52.4811 26.746 -111.372
rradius 104.777
rwrist 11.7253
rhand -52.4287 -12.4419
rfingers 7.12502
rthumb -24.9184 -400.837
lclavicle 1.21855e-013 -4.29375e-014
lhumerus -20.3737 14.4408 85.9551
lradius 64.6435
lwrist 32.798
lhand -5.5419 58.7757
lfingers 7.12502
lthumb 20.2727 -632.262
rfemur -10.2376 -1.72973 21.5605
rtibia 33.2037
rfoot -21.0568 -23.3603
rtoes -32.2136
lfemur -40.4902 8.96118 -38.4213
ltibia 44.1937
lfoot -24.1981 10.4358
ltoes -1.91546
